# xmcd
#
# Track frame offsets:
#	150
#	4334
#	19079
#	34757
#	46941
#	55013
#	69737
#	88350
#	101698
#	115086
#	128272
#	149980
#	170246
#	185037
#
# Disc length: 2727 seconds
# Revision: 0
# Processed by: cddbd v1.5.2PL0 Copyright (c) Steve Scherf et al.
# Submitted via: dBpowerAMP V12.0
#
DISCID=cb0aa50e
DTITLE=Lou Reid and Carolina - 20th Anniversary Concert- Live at the Down Home
DYEAR=2013
DGENRE=Country
TTITLE0=Tim White Introduction
TTITLE1=Grass Lover
TTITLE2=Amanda Lynn
TTITLE3=Mountain Girl
TTITLE4=Band Introductions
TTITLE5=Time
TTITLE6=Lost In A Memory
TTITLE7=Lord Have Mercy (On My Soul)
TTITLE8=I Call Your Name
TTITLE9=She's More To Be Pitied
TTITLE10=Long Black Veil
TTITLE11=I Couldn't Find My Walking Shoes
TTITLE12=Carolina Moonshine Man
TTITLE13=When It Rains
EXTD=
EXTT0=
EXTT1=
EXTT2=
EXTT3=
EXTT4=
EXTT5=
EXTT6=
EXTT7=
EXTT8=
EXTT9=
EXTT10=
EXTT11=
EXTT12=
EXTT13=
PLAYORDER=
